HIERARCHY
ROOT Hips
{
	OFFSET -14.64140 90.27770 -84.91600
	CHANNELS 6 Xposition Yposition Zposition Zrotation Xrotation Yrotation
	JOINT Spine
	{
		OFFSET 0.00000 13.20850 -1.60436
		CHANNELS 3 Zrotation Xrotation Yrotation
		JOINT Spine1
		{
			OFFSET 0.00000 8.61716 0.00000
			CHANNELS 3 Zrotation Xrotation Yrotation
			JOINT Spine2
			{
				OFFSET 0.00000 8.61717 0.00000
				CHANNELS 3 Zrotation Xrotation Yrotation
				JOINT Spine3
				{
					OFFSET 0.00000 8.61717 0.00000
					CHANNELS 3 Zrotation Xrotation Yrotation
					JOINT Neck
					{
						OFFSET 0.00000 11.07920 1.10792
						CHANNELS 3 Zrotation Xrotation Yrotation
						JOINT Neck1
						{
							OFFSET 0.00000 7.08032 0.00000
							CHANNELS 3 Zrotation Xrotation Yrotation
							JOINT Head
							{
								OFFSET 0.00000 7.08031 0.00000
								CHANNELS 3 Zrotation Xrotation Yrotation
								End site
								{
									OFFSET 0.00000 0.00000 0.00000
								}
							}
						}
					}
					JOINT RightShoulder
					{
						OFFSET -0.01000 7.91373 5.19711
						CHANNELS 3 Zrotation Xrotation Yrotation
						JOINT RightArm
						{
							OFFSET -18.41580 0.00000 0.00000
							CHANNELS 3 Zrotation Xrotation Yrotation
							JOINT RightForeArm
							{
								OFFSET -29.11090 0.00000 0.00000
								CHANNELS 3 Zrotation Xrotation Yrotation
								JOINT RightHand
								{
									OFFSET -24.65040 0.00000 0.00000
									CHANNELS 3 Zrotation Xrotation Yrotation
									JOINT RightHandThumb1
									{
										OFFSET -5.35114 -0.85590 3.97906
										CHANNELS 3 Zrotation Xrotation Yrotation
										JOINT RightHandThumb2
										{
											OFFSET -4.52789 0.00000 0.00000
											CHANNELS 3 Zrotation Xrotation Yrotation
											JOINT RightHandThumb3
											{
												OFFSET -2.46976 0.00000 0.00000
												CHANNELS 3 Zrotation Xrotation Yrotation
												End site
												{
													OFFSET 0.00000 0.00000 0.00000
												}
											}
										}
									}
									JOINT RightHandIndex1
									{
										OFFSET -14.26970 0.00000 2.88139
										CHANNELS 3 Zrotation Xrotation Yrotation
										JOINT RightHandIndex2
										{
											OFFSET -5.48836 0.00000 0.00000
											CHANNELS 3 Zrotation Xrotation Yrotation
											JOINT RightHandIndex3
											{
												OFFSET -3.01859 0.00000 0.00000
												CHANNELS 3 Zrotation Xrotation Yrotation
												End site
												{
													OFFSET 0.00000 0.00000 0.00000
												}
											}
										}
									}
									JOINT RightHandMiddle1
									{
										OFFSET -14.26970 0.00000 -0.09147
										CHANNELS 3 Zrotation Xrotation Yrotation
										JOINT RightHandMiddle2
										{
											OFFSET -6.17441 0.00000 0.00000
											CHANNELS 3 Zrotation Xrotation Yrotation
											JOINT RightHandMiddle3
											{
												OFFSET -3.56743 0.00000 0.00000
												CHANNELS 3 Zrotation Xrotation Yrotation
												End site
												{
													OFFSET 0.00000 0.00000 0.00000
												}
											}
										}
									}
									JOINT RightHandRing1
									{
										OFFSET -12.69180 0.00000 -3.06433
										CHANNELS 3 Zrotation Xrotation Yrotation
										JOINT RightHandRing2
										{
											OFFSET -5.62556 0.00000 0.00000
											CHANNELS 3 Zrotation Xrotation Yrotation
											JOINT RightHandRing3
											{
												OFFSET -3.56744 0.00000 0.00000
												CHANNELS 3 Zrotation Xrotation Yrotation
												End site
												{
													OFFSET 0.00000 0.00000 0.00000
												}
											}
										}
									}
									JOINT RightHandPinky1
									{
										OFFSET -11.11390 0.00000 -6.03719
										CHANNELS 3 Zrotation Xrotation Yrotation
										JOINT RightHandPinky2
										{
											OFFSET -4.52789 0.00000 0.00000
											CHANNELS 3 Zrotation Xrotation Yrotation
											JOINT RightHandPinky3
											{
												OFFSET -2.46976 0.00000 0.00000
												CHANNELS 3 Zrotation Xrotation Yrotation
												End site
												{
													OFFSET 0.00000 0.00000 0.00000
												}
											}
										}
									}
								}
							}
						}
					}
					JOINT LeftShoulder
					{
						OFFSET 0.01000 7.91373 5.19711
						CHANNELS 3 Zrotation Xrotation Yrotation
						JOINT LeftArm
						{
							OFFSET 18.41580 0.00000 0.00000
							CHANNELS 3 Zrotation Xrotation Yrotation
							JOINT LeftForeArm
							{
								OFFSET 29.11090 0.00000 0.00000
								CHANNELS 3 Zrotation Xrotation Yrotation
								JOINT LeftHand
								{
									OFFSET 24.65040 0.00000 0.00000
									CHANNELS 3 Zrotation Xrotation Yrotation
									JOINT LeftHandThumb1
									{
										OFFSET 5.35114 -0.85590 3.97906
										CHANNELS 3 Zrotation Xrotation Yrotation
										JOINT LeftHandThumb2
										{
											OFFSET 4.52789 0.00000 0.00000
											CHANNELS 3 Zrotation Xrotation Yrotation
											JOINT LeftHandThumb3
											{
												OFFSET 2.46977 0.00000 0.00000
												CHANNELS 3 Zrotation Xrotation Yrotation
												End site
												{
													OFFSET 0.00000 0.00000 0.00000
												}
											}
										}
									}
									JOINT LeftHandIndex1
									{
										OFFSET 14.26970 0.00000 2.88139
										CHANNELS 3 Zrotation Xrotation Yrotation
										JOINT LeftHandIndex2
										{
											OFFSET 5.48836 0.00000 0.00000
											CHANNELS 3 Zrotation Xrotation Yrotation
											JOINT LeftHandIndex3
											{
												OFFSET 3.01859 0.00000 0.00000
												CHANNELS 3 Zrotation Xrotation Yrotation
												End site
												{
													OFFSET 0.00000 0.00000 0.00000
												}
											}
										}
									}
									JOINT LeftHandMiddle1
									{
										OFFSET 14.26970 0.00000 -0.09147
										CHANNELS 3 Zrotation Xrotation Yrotation
										JOINT LeftHandMiddle2
										{
											OFFSET 6.17440 0.00000 0.00000
											CHANNELS 3 Zrotation Xrotation Yrotation
											JOINT LeftHandMiddle3
											{
												OFFSET 3.56744 0.00000 0.00000
												CHANNELS 3 Zrotation Xrotation Yrotation
												End site
												{
													OFFSET 0.00000 0.00000 0.00000
												}
											}
										}
									}
									JOINT LeftHandRing1
									{
										OFFSET 12.69180 0.00000 -3.06433
										CHANNELS 3 Zrotation Xrotation Yrotation
										JOINT LeftHandRing2
										{
											OFFSET 5.62556 0.00000 0.00000
											CHANNELS 3 Zrotation Xrotation Yrotation
											JOINT LeftHandRing3
											{
												OFFSET 3.56744 0.00000 0.00000
												CHANNELS 3 Zrotation Xrotation Yrotation
												End site
												{
													OFFSET 0.00000 0.00000 0.00000
												}
											}
										}
									}
									JOINT LeftHandPinky1
									{
										OFFSET 11.11390 0.00000 -6.03719
										CHANNELS 3 Zrotation Xrotation Yrotation
										JOINT LeftHandPinky2
										{
											OFFSET 4.52789 0.00000 0.00000
											CHANNELS 3 Zrotation Xrotation Yrotation
											JOINT LeftHandPinky3
											{
												OFFSET 2.46976 0.00000 0.00000
												CHANNELS 3 Zrotation Xrotation Yrotation
												End site
												{
													OFFSET 0.00000 0.00000 0.00000
												}
											}
										}
									}
								}
							}
						}
					}
					JOINT pCube4
					{
						OFFSET 0.00000 10.91090 1.10792
						CHANNELS 3 Zrotation Xrotation Yrotation
						End site
						{
							OFFSET 0.00000 0.00000 0.00000
						}
					}
				}
			}
		}
	}
	JOINT RightUpLeg
	{
		OFFSET -9.98441 0.00000 0.00000
		CHANNELS 3 Zrotation Xrotation Yrotation
		JOINT RightLeg
		{
			OFFSET 0.00000 -42.11790 0.00000
			CHANNELS 3 Zrotation Xrotation Yrotation
			JOINT RightFoot
			{
				OFFSET 0.00000 -45.00020 -0.00001
				CHANNELS 3 Zrotation Xrotation Yrotation
				JOINT RightForeFoot
				{
					OFFSET 0.00000 -3.74820 0.00000
					CHANNELS 3 Zrotation Xrotation Yrotation
					JOINT RightToeBase
					{
						OFFSET 0.00000 0.06325 14.43120
						CHANNELS 3 Zrotation Xrotation Yrotation
						End site
						{
							OFFSET 0.00000 0.00000 0.00000
						}
					}
				}
			}
		}
	}
	JOINT LeftUpLeg
	{
		OFFSET 9.98441 0.00000 0.00000
		CHANNELS 3 Zrotation Xrotation Yrotation
		JOINT LeftLeg
		{
			OFFSET 0.00000 -42.11800 0.00000
			CHANNELS 3 Zrotation Xrotation Yrotation
			JOINT LeftFoot
			{
				OFFSET 0.00000 -45.00070 0.00000
				CHANNELS 3 Zrotation Xrotation Yrotation
				JOINT LeftForeFoot
				{
					OFFSET 0.00000 -3.74824 0.00000
					CHANNELS 3 Zrotation Xrotation Yrotation
					JOINT LeftToeBase
					{
						OFFSET 0.00000 0.06325 14.43110
						CHANNELS 3 Zrotation Xrotation Yrotation
						End site
						{
							OFFSET 0.00000 0.00000 0.00000
						}
					}
				}
			}
		}
	}
}
MOTION
Frames: 4
Frame Time: 0.050000
-0.04249618915927038 -0.009317028016400733 -0.009249521789500599 -0.03669747600267703 -0.029146272383626094 -0.005325511173053041 6.258505139349834 1.5696765406443844 -2.465853814130799 -0.7195783842530539 3.474797268585118 0.43401694949449554 -0.5360690947189937 -1.2100492662639877 1.6215330536791817 -0.2950380439245326 -0.5249628505871262 -0.16445957267277375 0.25243832443980224 12.682156998364027 -1.7874667870940002 0.37203208632293844 0.016385417055996002 -4.376824724088577 1.0190856893058924 -16.248544561181493 -0.38673270553795547 -10.834520639648941 3.736632294046574 -17.13938103225357 79.65150562641846 13.555506495803133 20.5037649805892 0.837171138642264 -3.019043600665224 111.66789742036794 4.224374326199744 0.13242979722019615 1.725851968776189 4.558161859927265 -0.13641305212192364 -1.5683745455949365 0.035777984377160815 -0.04313243532781096 -56.26811044403398 -0.010601389648002772 -0.04542418272294005 -56.22412440392095 -38.726314677975104 0.01203341021290015 0.024131334632474726 0.03073426388915435 -0.009827788711459859 -0.006177905630144737 -0.020093142933160075 -0.00518230057631507 -0.006032888537328398 -36.69021158570024 0.005579481373556739 0.012554793760199317 0.012069641627587354 -0.01838031033210052 -0.013418101894591555 -0.000536241658228152 -0.01902944629885601 0.017468275704927608 -19.78202277925444 0.006014607201609916 0.04460388041529722 0.02496723332756787 0.01285943418091318 -0.045735450361614985 0.023364637963578665 0.03933362185652976 0.020517989436280543 24.078604227618207 -0.022737830371119837 -0.019677220440917655 28.88352705014927 0.01855989113016452 0.009489231509878591 28.868743925325855 0.0028147515891400274 -0.009712000795386325 10.940157375387564 2.477823642863646 14.83446803602783 -73.25056023873637 23.962394935165484 -18.75051285085725 6.912370721705943 -7.706620399562951 -101.48582332767354 -5.886655578705213 -4.835193356714928 -2.1474985073238297 -0.4834641348526421 0.03854904834021135 -8.159647282902151 0.02717511395944362 0.015191239307162941 44.52593681296534 -5.9936526616505154e-05 0.0443874250200147 44.60476448331747 12.4578547094325 -0.015432748774816967 -0.019357653785567096 -0.004432542631360982 -0.03234677809588164 -0.044041098741283036 0.032868488674283165 -0.010414440399071306 0.020747553147142894 11.106339652190213 -0.020358837671338254 -0.020315690254663905 0.012960278464381973 0.03330858441074936 0.04165369715792299 -0.03210196759995861 -0.013564080089185943 -0.014048111929829793 4.806810913347418 -0.014828154813517479 -0.028673172803659264 0.04979402715126822 -0.02759044653636682 -0.032601599123734344 0.02102811411972598 -0.02211942820293167 0.02010143158379961 -5.590885421663567 0.026763152773412124 -0.006150002981264091 -6.745267523803898 0.0012405080741748806 -0.028459536058784866 -6.712671226637547 0.014997385100074676 -0.008451905101216912 -0.03487397010620812 0.0019544553404247204 0.017152048228398314 8.06184823944079 3.515129583782176 -19.179376630018254 -0.02873448376673322 10.396117094137997 0.04672785597638544 -5.650451705586554 -15.693190869734952 3.1915859123929464 -0.025118914635915226 -0.018190819784915695 0.011785181827033678 -0.02418610874222122 4.71092800254956 0.043445164558441475 12.419795903232624 -8.276984099104643 6.888734652619884 0.024734366279419686 46.42646115452886 0.021194745469324844 -4.30648542997236 -14.75747465935959 -3.8560429749552565 -0.020891121471707907 0.02968680831632081 -0.025884816400252118 -0.04937836446687497 -10.763849185330104 0.01572225474137145 
0.0005583977257520256 0.028217970749000294 0.03373421421009074 -0.034468279397341706 -0.03415599148975997 0.006157674060764377 6.34601793607549 1.6195216391362965 -2.5132845508012815 -0.761701885924296 3.5207427908380233 0.43936144963546747 -0.5308042524969642 -1.2435345457303764 1.8027326526835157 -0.21488798931023306 -0.5008079324003214 -0.10427032457336728 0.3064759153431246 12.903214588129105 -1.9490935059021235 0.3285786182980376 0.04421479165487216 -4.961657307203667 1.0233635230734661 -16.219595337431212 -0.4556485806321341 -11.172952166744853 3.770286388872724 -17.074817832775107 78.14484789525004 12.111198823533345 22.414731876895654 1.1741351388213384 -2.830436540224199 111.28256351725823 4.018869443037838 0.1764976774467827 1.8340688427106062 4.487452375564109 -0.09323278904336532 -1.6000720733506884 -0.016670236528413835 -0.006930374064500264 -56.2611898673776 0.027805057074502874 0.019678112895118526 -56.261972996141196 -38.773659111586156 0.010736275999071706 0.019630109779550244 -0.038560719262214244 -0.048712586744743706 -0.015510860417631054 0.018006657218033614 -0.014400207382394305 0.012835722230780739 -36.7208199388573 -0.015048886549556504 0.01579584169170919 -0.012005197826192133 0.04374482959992436 -0.04219234533624798 0.046144246705584493 -0.010506520241714053 -0.0022452565354660788 -19.78928134764922 0.03247708162395162 -0.04991755381175761 -0.021081321804070643 -0.02742443544259807 -0.034644242017775266 0.04573795590601056 0.015568487826979734 0.018071208749664183 24.079943803923744 0.011043314269817443 -0.005752762791206022 28.905831214863817 -0.017606795120867588 -0.020549334000232386 28.82429036449466 0.015504813270188092 -0.032409472701746773 11.064601714423736 2.547602216923469 14.861289977531776 -72.53963363300298 22.35992108625956 -19.607675828872583 6.861118389940172 -7.0526839425407655 -101.31162516912691 -5.705424794782476 -4.230986324599248 -2.6210844157546385 -0.4802742082849343 0.11127354868744627 -8.124422047174635 -0.028549539871223197 0.0009322423040247482 44.55709225723876 -0.004211393380849714 -0.00250415614724253 44.60287900770069 12.442617067531833 0.040331591570628725 0.012596737492752206 -0.040877702313101394 -0.028543004459140316 -0.005288666893107164 -0.00683181829342308 0.008816699199144233 -0.007218145514416273 11.128458163731292 -0.04150902264723107 -0.019511517986895238 -0.009680467559382056 0.008892751884214116 -0.027739194159882883 0.02428941865382475 0.0019859186519230222 0.020683612183000313 4.758602251732844 -0.00989584405213928 -0.027200433228174833 0.04628503218086137 0.03980391947468065 -0.016055622709352107 -0.035470105797604845 -0.006822971891495342 -0.01567639761937378 -5.557302258000751 -0.019316965614213175 0.02897172499312843 -6.7095453955019 0.0008944223027588877 0.015055706146196236 -6.699657392432225 0.03716628818797084 -0.017672339159106713 0.022448551254335872 0.03295336298298298 -0.001769472542388663 8.004666557856025 3.52067453775253 -19.180958515843482 0.018846112726516373 10.392431225431173 -0.0011997864248230287 -5.663862158090907 -15.636770329893016 3.1814948727837273 0.0006602020538747563 -0.04444232808167079 -0.029483524533470647 -0.04695333459562349 4.6574912744372226 0.03495100158391123 12.466618229972832 -8.252080531872878 6.884942107385057 0.00534881856483913 46.42802519579475 -0.03269520106956456 -4.323623108427627 -14.767317859924782 -3.8837174521728954 0.040117865620509105 0.020325370464882524 -0.01022098405767155 -0.0373237450742263 -10.741625132850809 -0.026323200890374994 
0.004101229007549968 0.004777702453869955 -0.030015085075437372 -0.008366504329664732 -0.04415339256521525 -0.0043931211805127894 6.577533841956003 1.7542773796718834 -2.456637892251825 -0.71825106323756 3.5458173379869367 0.43674619737708886 -0.5177219346767872 -1.2324608351457351 1.9377255588864375 -0.21978906729541772 -0.5520927797722028 -0.07803645563953852 0.28968858355681254 13.294641299462713 -2.1815426828840243 0.22607489675878925 0.1699884598372169 -5.684379947724369 1.0693568317700182 -16.10236528149563 -0.49541794998967853 -11.661929931836019 3.9090772313186397 -16.958634199592694 76.07575424538989 10.136376399970914 25.298792786628336 0.6621681085257289 -2.7930179823425076 110.81152051265192 3.8333626932636276 0.10772462450031008 1.983207156145899 4.574872128297126 -0.17198119029773862 -1.5505797168218116 0.006223356438053543 -0.037144271924304646 -56.2035328029614 0.04500129193758217 0.04568144853667189 -56.23434199657815 -38.72633697733176 0.035950231864554975 -0.03367662322725756 0.017892142006310906 -0.026996715528588688 0.027002019863823726 0.03329611417920325 0.028613158921967724 0.007392434539872636 -36.727826837456234 0.037038666090283744 -0.01852562484975328 0.04432411429701558 -0.002967729163573337 0.007659293961027459 -0.0006867929667908651 0.022242789766011836 -0.006834829229939966 -19.79904619441494 0.03935576049456816 0.03526536424935648 -0.015480413758331696 -0.004881014658318549 0.0190086892875408 -0.04508744587403695 0.02072580177399113 0.04839010734932627 24.065446674045532 -0.001980924820797703 0.01863377628414486 28.898267749151046 0.014069654555429183 0.04966367314889997 28.89942591382145 0.04733143125263098 0.03159492866301564 11.358491937288477 2.551001479273412 14.892193616846765 -71.07872149021628 20.308417018372815 -21.830323132159865 8.102372958128205 -6.803091639753 -101.59742059311371 -5.317982683394882 -3.1997318625979356 -3.4127287518741474 -0.49990160188304894 0.11301242727379095 -8.100915800596013 0.02761731139727146 -0.03146322783335479 44.528777843697476 -0.02683370274086492 -0.043506361888750344 44.55861378535641 12.420197066851383 0.019831297326426918 -0.026783380975505353 0.012833263262563982 0.009577698190812172 -0.00787188445650139 0.013142943642422645 -0.0467002668583312 -0.0033857787267654533 11.130593087652313 0.03870995097756015 0.001878359827639767 -0.015715324919812285 -0.015024814930334194 -0.040108850473987025 0.018427047060007612 0.00759258697590959 -0.04250259547080659 4.780539131559391 -0.02576489922877222 -0.026986412311349746 -0.007795714093868084 -0.017227382264102538 0.0027642171393067734 0.010894706239845097 -0.022594824166132364 -0.044471823197969065 -5.565800346921945 0.01518390167944088 0.03534907104152862 -6.718850589767208 0.004419496957224619 -0.014711622240577923 -6.735478049786193 -0.042821860595142064 -0.018912810469733105 -0.008236938224426178 0.04640494320404731 -0.018346642283946557 8.072026457874877 3.5360999728882043 -19.203267441274352 -0.01747787081488303 10.421501990390992 -0.029512178238394294 -5.598765285306484 -15.640604168751949 3.1965670305402245 -0.03251833562797536 0.0024717325074940107 -0.007825142728793562 0.039548832686047024 4.737184816723819 -0.010895253658508288 12.482341242495906 -8.203779121304217 6.915057778757066 -0.02908896477071047 46.36748918024969 -0.0009962343487278792 -4.3663649514602065 -14.746208020347234 -3.8691882211365476 0.009600539875051916 -0.025202396875541752 -0.01893205756765056 0.0014123776111930463 -10.720618368220856 -0.03733221464508253 
-0.0063279249142625315 0.04616803048228373 -0.006104646447561923 -0.002897265692582742 -0.032166577386698064 0.034037809003420766 6.603481899646173 1.9518934601398938 -2.457666635647813 -0.7305035772699714 3.604473194155458 0.4382052811109229 -0.5645136258385741 -1.2134495746453102 1.975988576743349 -0.20799688757726828 -0.5549056893484503 -0.1450644976674388 0.371758450328379 13.691871604944392 -2.4237875082688136 0.24093615478883507 0.24992905356138845 -6.3387675443298415 1.1058580166433198 -15.9396625542626 -0.5286372456574471 -12.181270811938276 4.000919859992958 -16.8373851035508 74.01635839629982 8.816145831279512 28.50000111346712 -0.6765415757129173 -2.793961431798307 110.2481040707051 3.9383458518300443 0.16690479005108674 2.1836325054919357 4.510561579473427 -0.1473675830889724 -1.5840233200481528 -0.027911948655718673 0.015389966402379789 -56.2128249805247 -0.007174806014009834 -0.0195085908800144 -56.194856248392874 -38.80955077020669 -0.03269722317994157 0.025051039727664613 -0.031488701012636525 0.008931899543099125 -0.048594258075256254 -0.003925336696659495 -0.04145720816837702 -0.005399328419351988 -36.729419545933894 0.04275114815337705 -0.023112336594666 0.02908487748351964 0.0005567438515819763 -0.035440608257828576 -0.027487187061209586 0.012082059329160193 -0.042243793761396434 -19.737990176982713 -0.027519512197508558 -0.044894536153987204 0.028524136107760095 -0.02200126413331937 0.0036182656460665035 0.011067046765847828 0.031101518599075964 0.0475180112151547 24.072141731996147 0.007977275327055534 -0.02077414606845602 28.882747622215945 0.01701234545201237 -0.023887378213844485 28.91327916804694 0.02140657394338282 0.011461205422928056 11.793421244125653 2.6285187024471535 14.858600700921302 -69.42799674025534 18.665888565651375 -24.6985555268313 10.253556653287356 -6.880443619478595 -102.40850274837554 -5.166856670893766 -2.0642711827561677 -4.16132079634696 -0.4580920032543712 0.10900354996907419 -8.144481626842053 -0.021794634782022503 0.015013719048069018 44.597812166624045 0.042989012675292794 0.03335124369431393 44.55269334563194 12.500996095897243 0.017891299963853115 0.03903072291777847 -0.006248990844523245 -0.02222985864008896 -0.04377807743546279 -0.04272455668167856 0.023599310203525174 0.016998502636876908 11.072799208116553 -0.004311619557541098 0.007872227245210865 0.038067809409883115 -0.003806936119050262 -0.02258685634389907 0.0009968333831013088 -0.0011937305998120477 -0.04678737342519309 4.7508418386798965 0.004711615544669387 -0.03574502816903689 -0.016058034910355512 -0.023974295718463275 0.043871728024509796 -0.01616605323312187 -0.015197094693018652 -0.027305575044008865 -5.6270028244920915 -0.02498365349542274 0.017441328026488536 -6.694357621966765 -0.0453311478660371 -0.032583672439363186 -6.70888583897617 0.04613873732188364 -0.01938902045725565 0.047966085956519244 -0.01358965107712363 0.00151829090641272 8.022949356575811 3.4621616006776095 -19.222036530196835 0.01461128529670073 10.43361260471529 0.057661694577856595 -5.60360843322224 -15.634128496659763 3.2157646977513066 -0.044153478554668786 -0.0017375715262033674 -0.022658598831793955 -0.01434836189773138 4.66858714677122 -0.04534246084763853 12.480791781929414 -8.21542941315485 6.873771349501125 -0.012502055795510288 46.3483109427965 -0.00877994482154186 -4.309514067294099 -14.75135654212454 -3.808041062625988 0.03489273947842458 -0.04267653846474749 0.010110130075324962 -0.01851975928208309 -10.777018980815948 -0.04048089793890972 
